<?xml version="1.0" encoding="utf-8"?>
<!-- Generator: Adobe Illustrator 21.0.0, SVG Export Plug-In . SVG Version: 6.00 Build 0)  -->
<svg version="1.1" id="Layer_1" xmlns="http://www.w3.org/2000/svg" xmlns:xlink="http://www.w3.org/1999/xlink" x="0px" y="0px"
	 viewBox="0 0 800 800" style="enable-background:new 0 0 800 800;" xml:space="preserve">
<style type="text/css">
</style>
<g>
	<path class="st0" d="M409.2,756.7c-47.4,0-93.4-9.3-136.7-27.6c-41.8-17.7-79.4-43-111.6-75.2c-32.2-32.2-57.5-69.8-75.2-111.6
		C67.3,498.9,58,452.9,58,405.5c0-47.4,9.3-93.4,27.6-136.7c17.7-41.8,43-79.4,75.2-111.6c32.2-32.2,69.8-57.5,111.6-75.2
		c43.3-18.3,89.3-27.6,136.7-27.6c47.4,0,93.4,9.3,136.7,27.6c41.8,17.7,79.4,43,111.6,75.2c32.2,32.2,57.5,69.8,75.2,111.6
		c18.3,43.3,27.6,89.3,27.6,136.7c0,47.4-9.3,93.4-27.6,136.7c-17.7,41.8-43,79.4-75.2,111.6s-69.8,57.5-111.6,75.2
		C502.6,747.4,456.6,756.7,409.2,756.7z M409.2,204.3c-110.9,0-201.2,90.3-201.2,201.2c0,110.9,90.3,201.2,201.2,201.2
		c110.9,0,201.2-90.3,201.2-201.2C610.4,294.6,520.1,204.3,409.2,204.3z"/>
</g>
</svg>
